<?xml version="1.0" encoding="utf-8"?>
<!-- Generator: Adobe Illustrator 16.0.0, SVG Export Plug-In . SVG Version: 6.00 Build 0)  -->
<!DOCTYPE svg PUBLIC "-//W3C//DTD SVG 1.1 Tiny//EN" "http://www.w3.org/Graphics/SVG/1.1/DTD/svg11-tiny.dtd">
<svg version="1.1" baseProfile="tiny" id="图层_1"
	 xmlns="http://www.w3.org/2000/svg" xmlns:xlink="http://www.w3.org/1999/xlink" x="0px" y="0px" width="30px" height="30px"
	 viewBox="0 0 30 30" xml:space="preserve">
<path fill="#FFFFFF" stroke="#FFFFFF" stroke-miterlimit="10" d="M27.5,5.5c0,1.104-0.896,2-2,2h-20c-1.104,0-2-0.896-2-2l0,0
	c0-1.104,0.896-2,2-2h20C26.604,3.5,27.5,4.396,27.5,5.5L27.5,5.5z"/>
<path fill="#FFFFFF" stroke="#FFFFFF" stroke-miterlimit="10" d="M27.5,14.5c0,1.104-0.896,2-2,2h-20c-1.104,0-2-0.896-2-2l0,0
	c0-1.104,0.896-2,2-2h20C26.604,12.5,27.5,13.396,27.5,14.5L27.5,14.5z"/>
<path fill="#FFFFFF" stroke="#FFFFFF" stroke-miterlimit="10" d="M27.5,23.5c0,1.104-0.896,2-2,2h-20c-1.104,0-2-0.896-2-2l0,0
	c0-1.104,0.896-2,2-2h20C26.604,21.5,27.5,22.396,27.5,23.5L27.5,23.5z"/>
</svg>
